<svg xmlns="http://www.w3.org/2000/svg" width="24" height="24" viewBox="0 0 24 24" fill="none" stroke="#1a3353" stroke-width="2" stroke-linecap="round" stroke-linejoin="round">
  <path d="M12 22c4.2 0 7-3.22 7-8.25 0-3.15-2.07-5.91-5-6.75"></path>
  <path d="M12 2c-4.2 0-7 3.22-7 8.25 0 3.15 2.07 5.91 5 6.75"></path>
  <path d="M22 12c0-4.2-3.22-7-8.25-7-3.15 0-5.91 2.07-6.75 5"></path>
  <path d="M2 12c0 4.2 3.22 7 8.25 7 3.15 0 5.91-2.07 6.75-5"></path>
  <circle cx="12" cy="12" r="3"></circle>
</svg>
